<svg id="visual" viewBox="0 0 960 300" width="960" height="300" xmlns="http://www.w3.org/2000/svg" xmlns:xlink="http://www.w3.org/1999/xlink" version="1.1"><rect x="0" y="0" width="960" height="300" fill="#001220"></rect><path d="M0 203L11.5 205.5C23 208 46 213 68.8 204.7C91.7 196.3 114.3 174.7 137.2 170.8C160 167 183 181 205.8 179.3C228.7 177.7 251.3 160.3 274.2 153.7C297 147 320 151 342.8 150.3C365.7 149.7 388.3 144.3 411.2 153.5C434 162.7 457 186.3 480 196.3C503 206.3 526 202.7 548.8 190.5C571.7 178.3 594.3 157.7 617.2 149C640 140.3 663 143.7 685.8 146.7C708.7 149.7 731.3 152.3 754.2 155C777 157.7 800 160.3 822.8 162C845.7 163.7 868.3 164.3 891.2 165C914 165.7 937 166.3 948.5 166.7L960 167L960 0L948.5 0C937 0 914 0 891.2 0C868.3 0 845.7 0 822.8 0C800 0 777 0 754.2 0C731.3 0 708.7 0 685.8 0C663 0 640 0 617.2 0C594.3 0 571.7 0 548.8 0C526 0 503 0 480 0C457 0 434 0 411.2 0C388.3 0 365.7 0 342.8 0C320 0 297 0 274.2 0C251.3 0 228.7 0 205.8 0C183 0 160 0 137.2 0C114.3 0 91.7 0 68.8 0C46 0 23 0 11.5 0L0 0Z" fill="#ff4e4e"></path><path d="M0 155L11.5 152C23 149 46 143 68.8 136C91.7 129 114.3 121 137.2 116.2C160 111.3 183 109.7 205.8 111.3C228.7 113 251.3 118 274.2 122.3C297 126.7 320 130.3 342.8 137.8C365.7 145.3 388.3 156.7 411.2 159.3C434 162 457 156 480 154.3C503 152.7 526 155.3 548.8 155.2C571.7 155 594.3 152 617.2 149.2C640 146.3 663 143.7 685.8 146C708.7 148.3 731.3 155.7 754.2 158.7C777 161.7 800 160.3 822.8 157.5C845.7 154.7 868.3 150.3 891.2 148.8C914 147.3 937 148.7 948.5 149.3L960 150L960 0L948.5 0C937 0 914 0 891.2 0C868.3 0 845.7 0 822.8 0C800 0 777 0 754.2 0C731.3 0 708.7 0 685.8 0C663 0 640 0 617.2 0C594.3 0 571.7 0 548.8 0C526 0 503 0 480 0C457 0 434 0 411.2 0C388.3 0 365.7 0 342.8 0C320 0 297 0 274.2 0C251.3 0 228.7 0 205.8 0C183 0 160 0 137.2 0C114.3 0 91.7 0 68.8 0C46 0 23 0 11.5 0L0 0Z" fill="#ee4148"></path><path d="M0 145L11.5 136.8C23 128.7 46 112.3 68.8 104.5C91.7 96.7 114.3 97.3 137.2 97.3C160 97.3 183 96.7 205.8 96.5C228.7 96.3 251.3 96.7 274.2 97.5C297 98.3 320 99.7 342.8 97.2C365.7 94.7 388.3 88.3 411.2 91.7C434 95 457 108 480 110.5C503 113 526 105 548.8 108.5C571.7 112 594.3 127 617.2 130C640 133 663 124 685.8 122C708.7 120 731.3 125 754.2 123.2C777 121.3 800 112.7 822.8 115.2C845.7 117.7 868.3 131.3 891.2 130.8C914 130.3 937 115.7 948.5 108.3L960 101L960 0L948.5 0C937 0 914 0 891.2 0C868.3 0 845.7 0 822.8 0C800 0 777 0 754.2 0C731.3 0 708.7 0 685.8 0C663 0 640 0 617.2 0C594.3 0 571.7 0 548.8 0C526 0 503 0 480 0C457 0 434 0 411.2 0C388.3 0 365.7 0 342.8 0C320 0 297 0 274.2 0C251.3 0 228.7 0 205.8 0C183 0 160 0 137.2 0C114.3 0 91.7 0 68.8 0C46 0 23 0 11.5 0L0 0Z" fill="#de3441"></path><path d="M0 83L11.5 80.5C23 78 46 73 68.8 72.7C91.7 72.3 114.3 76.7 137.2 75.3C160 74 183 67 205.8 64.8C228.7 62.7 251.3 65.3 274.2 63.7C297 62 320 56 342.8 53.5C365.7 51 388.3 52 411.2 61C434 70 457 87 480 89.5C503 92 526 80 548.8 74.2C571.7 68.3 594.3 68.7 617.2 74.2C640 79.7 663 90.3 685.8 92.3C708.7 94.3 731.3 87.7 754.2 80.8C777 74 800 67 822.8 70.8C845.7 74.7 868.3 89.3 891.2 96C914 102.7 937 101.3 948.5 100.7L960 100L960 0L948.5 0C937 0 914 0 891.2 0C868.3 0 845.7 0 822.8 0C800 0 777 0 754.2 0C731.3 0 708.7 0 685.8 0C663 0 640 0 617.2 0C594.3 0 571.7 0 548.8 0C526 0 503 0 480 0C457 0 434 0 411.2 0C388.3 0 365.7 0 342.8 0C320 0 297 0 274.2 0C251.3 0 228.7 0 205.8 0C183 0 160 0 137.2 0C114.3 0 91.7 0 68.8 0C46 0 23 0 11.5 0L0 0Z" fill="#ce263a"></path><path d="M0 50L11.5 52.5C23 55 46 60 68.8 61C91.7 62 114.3 59 137.2 52C160 45 183 34 205.8 30.5C228.7 27 251.3 31 274.2 37.2C297 43.3 320 51.7 342.8 56.8C365.7 62 388.3 64 411.2 58.3C434 52.7 457 39.3 480 35C503 30.7 526 35.3 548.8 38.2C571.7 41 594.3 42 617.2 44.5C640 47 663 51 685.8 52.3C708.7 53.7 731.3 52.3 754.2 53.5C777 54.7 800 58.3 822.8 56.2C845.7 54 868.3 46 891.2 42.3C914 38.7 937 39.3 948.5 39.7L960 40L960 0L948.5 0C937 0 914 0 891.2 0C868.3 0 845.7 0 822.8 0C800 0 777 0 754.2 0C731.3 0 708.7 0 685.8 0C663 0 640 0 617.2 0C594.3 0 571.7 0 548.8 0C526 0 503 0 480 0C457 0 434 0 411.2 0C388.3 0 365.7 0 342.8 0C320 0 297 0 274.2 0C251.3 0 228.7 0 205.8 0C183 0 160 0 137.2 0C114.3 0 91.7 0 68.8 0C46 0 23 0 11.5 0L0 0Z" fill="#be1534"></path></svg>